# xmcd
#
# Track frame offsets:
#  183
#  13595
#  24485
#  38040
#  61760
#  85735
#  97450
#  111628
#  121888
#  133148
#  147325
#  157073
#  169255
#  179638
#  195133
#  205690
#  216453
#  227768
#  256875
#  266748
#  276823
#  289503
#
# Disc length: 4053 seconds
#
# Revision: 3
# Processed by: cddbd v1.5.1PL2 Copyright (c) Steve Scherf et al.
# Submitted via: Collectorz.com_Music_Collector 6.11
#
DISCID=4b0fd316
DTITLE=Yardbirds - Live 1964-1967
DYEAR=1900
DGENRE=Blues
TTITLE0=Too Much Monkey Business
TTITLE1=I Got Love If You Want It
TTITLE2=Pretty Girl
TTITLE3=Respectable
TTITLE4=Smokestack Lightning
TTITLE5=Good Morning Little Schoolgirl
TTITLE6=Mr. You Are A Better Man Than I
TTITLE7=Train Kept A Rolling
TTITLE8=Dust My Broom
TTITLE9=Scratch My Back
TTITLE10=Over, Under, Sideways, Down
TTITLE11=The Sun Is Shining
TTITLE12=Shapes Of Things
TTITLE13=Mr. You Are A Better Man Than I
TTITLE14=Over, Under, Sideways, Down
TTITLE15=Little Games
TTITLE16=My Baby
TTITLE17=I'm A Man
TTITLE18=Shapes Of Things
TTITLE19=Heartfull Of Soul
TTITLE20=You'll Go Your Way
TTITLE21=I Wish You Would
EXTD=
EXTT0=
EXTT1=
EXTT2=
EXTT3=
EXTT4=
EXTT5=
EXTT6=
EXTT7=
EXTT8=
EXTT9=
EXTT10=
EXTT11=
EXTT12=
EXTT13=
EXTT14=
EXTT15=
EXTT16=
EXTT17=
EXTT18=
EXTT19=
EXTT20=
EXTT21=
PLAYORDER=
